<svg width="78" height="78" viewBox="0 0 78 78" fill="none" xmlns="http://www.w3.org/2000/svg">
<path d="M58.5 9.75C61.0859 9.75 63.5658 10.7772 65.3943 12.6057C67.2228 14.4342 68.25 16.9141 68.25 19.5V58.5C68.25 61.0859 67.2228 63.5658 65.3943 65.3943C63.5658 67.2228 61.0859 68.25 58.5 68.25H19.5C16.9141 68.25 14.4342 67.2228 12.6057 65.3943C10.7772 63.5658 9.75 61.0859 9.75 58.5V19.5C9.75 16.9141 10.7772 14.4342 12.6057 12.6057C14.4342 10.7772 16.9141 9.75 19.5 9.75H58.5ZM58.5 16.25H19.5C18.638 16.25 17.8114 16.5924 17.2019 17.2019C16.5924 17.8114 16.25 18.638 16.25 19.5V58.5C16.25 59.362 16.5924 60.1886 17.2019 60.7981C17.8114 61.4076 18.638 61.75 19.5 61.75H58.5C59.362 61.75 60.1886 61.4076 60.7981 60.7981C61.4076 60.1886 61.75 59.362 61.75 58.5V19.5C61.75 18.638 61.4076 17.8114 60.7981 17.2019C60.1886 16.5924 59.362 16.25 58.5 16.25ZM26 32.5C26.796 32.5001 27.5643 32.7924 28.1592 33.3213C28.7541 33.8503 29.1341 34.5792 29.2272 35.3698L29.25 35.75V52C29.2491 52.8284 28.9319 53.6251 28.3632 54.2274C27.7946 54.8298 27.0174 55.1923 26.1905 55.2408C25.3635 55.2894 24.5493 55.0203 23.914 54.4886C23.2788 53.957 22.8706 53.2028 22.7727 52.3803L22.75 52V35.75C22.75 34.888 23.0924 34.0614 23.7019 33.4519C24.3114 32.8424 25.138 32.5 26 32.5ZM35.75 29.25C36.5111 29.2499 37.2482 29.5169 37.8326 30.0045C38.417 30.4921 38.8118 31.1694 38.948 31.9183C39.6026 31.5402 40.2787 31.2006 40.9728 30.901C43.1405 29.9748 46.3872 29.4645 49.3188 30.3843C50.856 30.8717 52.3997 31.7817 53.5438 33.332C54.5675 34.7132 55.12 36.3935 55.2305 38.2818L55.25 39V52C55.2491 52.8284 54.9319 53.6251 54.3632 54.2274C53.7946 54.8298 53.0174 55.1923 52.1905 55.2408C51.3635 55.2894 50.5493 55.0203 49.914 54.4886C49.2788 53.957 48.8706 53.2028 48.7728 52.3803L48.75 52V39C48.75 37.9275 48.49 37.427 48.321 37.1962C48.0781 36.8948 47.7439 36.6804 47.3687 36.5853C46.2378 36.2278 44.6095 36.4163 43.5272 36.8778C41.9022 37.5732 40.4137 38.6653 39.3997 39.676L39 40.105V52C38.9991 52.8284 38.6819 53.6251 38.1132 54.2274C37.5446 54.8298 36.7674 55.1923 35.9405 55.2408C35.1135 55.2894 34.2993 55.0203 33.664 54.4886C33.0288 53.957 32.6206 53.2028 32.5228 52.3803L32.5 52V32.5C32.5 31.638 32.8424 30.8114 33.4519 30.2019C34.0614 29.5924 34.888 29.25 35.75 29.25ZM26 22.75C26.862 22.75 27.6886 23.0924 28.2981 23.7019C28.9076 24.3114 29.25 25.138 29.25 26C29.25 26.862 28.9076 27.6886 28.2981 28.2981C27.6886 28.9076 26.862 29.25 26 29.25C25.138 29.25 24.3114 28.9076 23.7019 28.2981C23.0924 27.6886 22.75 26.862 22.75 26C22.75 25.138 23.0924 24.3114 23.7019 23.7019C24.3114 23.0924 25.138 22.75 26 22.75Z" fill="#F1DAF3"/>
</svg>
